<svg xmlns="http://www.w3.org/2000/svg" version="1.1" xmlns:xlink="http://www.w3.org/1999/xlink" xmlns:svgjs="http://svgjs.com/svgjs" width="256" height="256" x="0" y="0" viewBox="0 0 24 24" style="enable-background:new 0 0 512 512" xml:space="preserve"><g><path d="M13.338.833a2 2 0 0 0-2.676 0L0 10.429v10.4a3.2 3.2 0 0 0 3.2 3.2h17.6a3.2 3.2 0 0 0 3.2-3.2v-10.4ZM15 22.026H9V17a3 3 0 0 1 6 0Zm7-1.2a1.2 1.2 0 0 1-1.2 1.2H17V17a5 5 0 0 0-10 0v5.026H3.2a1.2 1.2 0 0 1-1.2-1.2v-9.507l10-9 10 9Z" data-name="01 align center" fill="#ffffff" data-original="#000000"></path></g></svg>