<svg xmlns="http://www.w3.org/2000/svg" version="1.1" xmlns:xlink="http://www.w3.org/1999/xlink" xmlns:svgjs="http://svgjs.com/svgjs" width="256" height="256" x="0" y="0" viewBox="0 0 24 24" style="enable-background:new 0 0 512 512" xml:space="preserve"><g><g data-name="01 align center"><path d="M10.931 2.75a3.728 3.728 0 0 0-7.195 0H0v2h3.736a3.728 3.728 0 0 0 7.195 0H24v-2ZM7.333 5.5a1.75 1.75 0 1 1 1.75-1.75 1.753 1.753 0 0 1-1.75 1.75ZM16.667 8.25A3.745 3.745 0 0 0 13.07 11H0v2h13.07a3.727 3.727 0 0 0 7.194 0H24v-2h-3.736a3.745 3.745 0 0 0-3.597-2.75Zm0 5.5a1.75 1.75 0 1 1 1.75-1.75 1.752 1.752 0 0 1-1.75 1.75ZM7.333 16.5a3.745 3.745 0 0 0-3.6 2.75H0v2h3.736a3.728 3.728 0 0 0 7.195 0H24v-2H10.931a3.745 3.745 0 0 0-3.598-2.75Zm0 5.5a1.75 1.75 0 1 1 1.75-1.75A1.753 1.753 0 0 1 7.333 22Z" fill="#ffffff" data-original="#000000"></path></g></g></svg>