<svg xmlns="http://www.w3.org/2000/svg" version="1.1" xmlns:xlink="http://www.w3.org/1999/xlink" xmlns:svgjs="http://svgjs.com/svgjs" width="256" height="256" x="0" y="0" viewBox="0 0 24 24" style="enable-background:new 0 0 512 512" xml:space="preserve"><g><path d="M15 24H9v-3.513a9 9 0 0 1-2.849-1.646L3.107 20.6l-3-5.2 3.043-1.755a9.1 9.1 0 0 1 0-3.29L.107 8.6l3-5.2 3.044 1.759A9 9 0 0 1 9 3.513V0h6v3.513a9 9 0 0 1 2.849 1.646L20.893 3.4l3 5.2-3.043 1.755a9.1 9.1 0 0 1 0 3.29l3.043 1.755-3 5.2-3.044-1.758A9 9 0 0 1 15 20.487Zm-4-2h2v-3.027l.751-.194a6.984 6.984 0 0 0 3.243-1.879l.543-.553 2.623 1.515 1-1.732-2.62-1.513.206-.746a7.048 7.048 0 0 0 0-3.75l-.206-.746 2.62-1.513-1-1.732-2.623 1.519-.543-.549a6.984 6.984 0 0 0-3.243-1.875L13 5.027V2h-2v3.027l-.751.194A6.984 6.984 0 0 0 7.006 7.1l-.543.553L3.84 6.134l-1 1.732 2.62 1.513-.206.746a7.048 7.048 0 0 0 0 3.75l.206.746-2.62 1.513 1 1.732 2.623-1.515.543.553a6.984 6.984 0 0 0 3.243 1.875l.751.194Zm1-6a4 4 0 1 1 4-4 4 4 0 0 1-4 4Zm0-6a2 2 0 1 0 2 2 2 2 0 0 0-2-2Z" data-name="01 align center" fill="#ffffff" data-original="#000000"></path></g></svg>